<svg width="109" height="29" viewBox="0 0 109 29" fill="none" xmlns="http://www.w3.org/2000/svg">
<path d="M5.64 19.1C5.14667 19.1 4.79333 18.9933 4.58 18.78C4.36667 18.5533 4.26 18.1333 4.26 17.52C4.26 17.1067 4.3 16.6067 4.38 16.02C4.46 15.4333 4.6 14.5467 4.8 13.36C4.82667 13.2 4.93333 12.5533 5.12 11.42C5.30667 10.2733 5.47333 9.07333 5.62 7.82C5.75333 6.75333 5.82 5.95333 5.82 5.42C5.82 4.82 5.6 4.52 5.16 4.52C4.82667 4.52 4.40667 4.7 3.9 5.06C3.40667 5.40667 2.87333 5.96667 2.3 6.74C2.11333 6.99333 1.90667 7.12 1.68 7.12C1.49333 7.12 1.32667 7.03333 1.18 6.86C1.04667 6.67333 0.98 6.46667 0.98 6.24C0.98 6.01333 1.02 5.8 1.1 5.6C1.18 5.38667 1.32667 5.13333 1.54 4.84C2.19333 3.94667 2.92 3.26 3.72 2.78C4.52 2.28667 5.36 2.04 6.24 2.04C6.97333 2.04 7.52 2.26667 7.88 2.72C8.25333 3.17333 8.44 3.83333 8.44 4.7C8.44 5.47333 8.33333 6.59333 8.12 8.06C8.78667 6.08667 9.63333 4.59333 10.66 3.58C11.6867 2.55333 12.8933 2.04 14.28 2.04C15.3733 2.04 16.1933 2.35333 16.74 2.98C17.3 3.59333 17.58 4.42 17.58 5.46C17.58 6.04667 17.4933 6.76 17.32 7.6L16.1 13.32C15.9667 13.9867 15.9 14.56 15.9 15.04C15.9 15.6 16.0267 16.02 16.28 16.3C16.5467 16.58 16.9133 16.72 17.38 16.72C17.82 16.72 18.2467 16.5733 18.66 16.28C19.0867 15.9867 19.5867 15.5 20.16 14.82C20.32 14.6333 20.5 14.54 20.7 14.54C20.8733 14.54 21.0067 14.62 21.1 14.78C21.2067 14.94 21.26 15.16 21.26 15.44C21.26 15.96 21.1333 16.3733 20.88 16.68C20.1867 17.52 19.5 18.1333 18.82 18.52C18.14 18.9067 17.4267 19.1 16.68 19.1C15.5467 19.1 14.66 18.7667 14.02 18.1C13.38 17.42 13.06 16.5133 13.06 15.38C13.06 14.94 13.0933 14.46 13.16 13.94C13.24 13.42 13.3667 12.76 13.54 11.96L14.34 8.3C14.3667 8.18 14.4133 7.96667 14.48 7.66C14.5467 7.35333 14.6 7.06667 14.64 6.8C14.68 6.52 14.7 6.24667 14.7 5.98C14.7 5.55333 14.58 5.21333 14.34 4.96C14.1 4.70667 13.76 4.58 13.32 4.58C12.52 4.58 11.72 5.00667 10.92 5.86C10.12 6.71333 9.38 8.09333 8.7 10C8.02 11.8933 7.48667 14.32 7.1 17.28C7.00667 17.96 6.86667 18.4333 6.68 18.7C6.50667 18.9667 6.16 19.1 5.64 19.1ZM22.2558 8.36C21.6958 8.36 21.2758 8.23333 20.9958 7.98C20.7158 7.71333 20.5758 7.34667 20.5758 6.88C20.5758 6.41333 20.7558 6.02667 21.1158 5.72C21.4891 5.4 21.9491 5.24 22.4958 5.24C22.9891 5.24 23.3891 5.36 23.6958 5.6C24.0024 5.84 24.1558 6.18 24.1558 6.62C24.1558 7.15333 23.9824 7.58 23.6358 7.9C23.2891 8.20667 22.8291 8.36 22.2558 8.36ZM22.0958 19.1C21.2291 19.1 20.5958 18.7933 20.1958 18.18C19.8091 17.5667 19.6158 16.7533 19.6158 15.74C19.6158 15.14 19.6891 14.3733 19.8358 13.44C19.9958 12.4933 20.1958 11.6133 20.4358 10.8C20.5558 10.3733 20.7158 10.08 20.9158 9.92C21.1158 9.76 21.4358 9.68 21.8758 9.68C22.5558 9.68 22.8958 9.90667 22.8958 10.36C22.8958 10.6933 22.7691 11.4667 22.5158 12.68C22.1958 14.1467 22.0358 15.14 22.0358 15.66C22.0358 16.06 22.0891 16.3667 22.1958 16.58C22.3024 16.7933 22.4824 16.9 22.7358 16.9C22.9758 16.9 23.2758 16.7333 23.6358 16.4C23.9958 16.0667 24.4758 15.54 25.0758 14.82C25.2358 14.6333 25.4158 14.54 25.6158 14.54C25.7891 14.54 25.9224 14.62 26.0158 14.78C26.1224 14.94 26.1758 15.16 26.1758 15.44C26.1758 15.9733 26.0491 16.3867 25.7958 16.68C24.4758 18.2933 23.2424 19.1 22.0958 19.1ZM28.2777 19.54C27.5843 19.54 27.051 19.38 26.6777 19.06C26.3177 18.74 26.1377 18.38 26.1377 17.98C26.1377 17.6333 26.2643 17.3333 26.5177 17.08C26.771 16.8267 27.1443 16.7 27.6377 16.7C27.811 16.7 28.011 16.72 28.2377 16.76C28.4777 16.7867 28.6577 16.8067 28.7777 16.82C28.7643 16.4733 28.6843 16.1467 28.5377 15.84C28.4043 15.5333 28.231 15.24 28.0177 14.96C27.8043 14.6667 27.6043 14.4133 27.4177 14.2C27.0043 14.9867 26.591 15.64 26.1777 16.16C25.7777 16.68 25.3377 17.1733 24.8577 17.64C24.6177 17.88 24.3643 18 24.0977 18C23.8843 18 23.711 17.9267 23.5777 17.78C23.4443 17.62 23.3777 17.4267 23.3777 17.2C23.3777 16.9333 23.471 16.6867 23.6577 16.46L23.9177 16.14C24.651 15.2333 25.2043 14.4867 25.5777 13.9C25.8043 13.5133 26.071 13 26.3777 12.36C26.6843 11.7067 26.9843 11.0333 27.2777 10.34C27.531 9.75333 28.0577 9.46 28.8577 9.46C29.231 9.46 29.491 9.49333 29.6377 9.56C29.7843 9.62667 29.8577 9.73333 29.8577 9.88C29.8577 9.96 29.831 10.0867 29.7777 10.26C29.7243 10.4333 29.651 10.6067 29.5577 10.78C29.3177 11.26 29.1977 11.6667 29.1977 12C29.1977 12.2 29.2643 12.42 29.3977 12.66C29.5443 12.9 29.7643 13.2 30.0577 13.56C30.4843 14.12 30.8043 14.6 31.0177 15C31.2443 15.3867 31.3577 15.8133 31.3577 16.28C31.3577 16.4133 31.3443 16.6 31.3177 16.84C31.971 16.5867 32.7377 15.9133 33.6177 14.82C33.7777 14.6333 33.9577 14.54 34.1577 14.54C34.331 14.54 34.4643 14.62 34.5577 14.78C34.6643 14.94 34.7177 15.16 34.7177 15.44C34.7177 15.9467 34.591 16.36 34.3377 16.68C33.671 17.5067 33.031 18.0733 32.4177 18.38C31.8177 18.6733 31.071 18.8333 30.1777 18.86C29.6443 19.3133 29.011 19.54 28.2777 19.54ZM44.1928 14.54C44.3661 14.54 44.4995 14.62 44.5928 14.78C44.6995 14.94 44.7528 15.16 44.7528 15.44C44.7528 15.9733 44.6261 16.3867 44.3728 16.68C43.7595 17.3867 43.1261 17.9667 42.4728 18.42C41.8328 18.8733 41.0995 19.1 40.2728 19.1C39.5928 19.1 39.0795 18.9067 38.7328 18.52C38.3861 18.12 38.2128 17.5467 38.2128 16.8C38.2128 16.4267 38.3061 15.76 38.4928 14.8C38.6661 13.96 38.7528 13.38 38.7528 13.06C38.7528 12.8467 38.6795 12.74 38.5328 12.74C38.3595 12.74 38.1128 12.9667 37.7928 13.42C37.4728 13.86 37.1528 14.4467 36.8328 15.18C36.5128 15.9133 36.2528 16.6867 36.0528 17.5C35.7995 18.5667 35.1728 19.1 34.1728 19.1C33.7728 19.1 33.5061 18.96 33.3728 18.68C33.2528 18.3867 33.1928 17.8667 33.1928 17.12C33.1928 16.6933 33.1995 16.3533 33.2128 16.1L33.2328 14.5C33.2328 12.4467 33.4395 10.3067 33.8528 8.08C34.2795 5.85333 34.8995 3.98667 35.7128 2.48C36.5395 0.959999 37.5261 0.199999 38.6728 0.199999C39.2861 0.199999 39.7795 0.466666 40.1528 0.999999C40.5395 1.52 40.7328 2.2 40.7328 3.04C40.7328 4.38667 40.3395 5.78667 39.5528 7.24C38.7661 8.68 37.4861 10.3667 35.7128 12.3C35.6728 12.9933 35.6528 13.7067 35.6528 14.44C36.0928 13.3067 36.5795 12.3867 37.1128 11.68C37.6595 10.96 38.1928 10.4467 38.7128 10.14C39.2461 9.83333 39.7328 9.68 40.1728 9.68C41.0395 9.68 41.4728 10.1133 41.4728 10.98C41.4728 11.5 41.3261 12.44 41.0328 13.8C40.7795 14.96 40.6528 15.7267 40.6528 16.1C40.6528 16.6333 40.8461 16.9 41.2328 16.9C41.4995 16.9 41.8128 16.74 42.1728 16.42C42.5461 16.0867 43.0395 15.5533 43.6528 14.82C43.8128 14.6333 43.9928 14.54 44.1928 14.54ZM38.2528 2.18C38.0128 2.18 37.7461 2.52667 37.4528 3.22C37.1595 3.9 36.8728 4.82667 36.5928 6C36.3261 7.16 36.1061 8.42667 35.9328 9.8C36.7595 8.82667 37.4395 7.76667 37.9728 6.62C38.5195 5.47333 38.7928 4.43333 38.7928 3.5C38.7928 3.07333 38.7461 2.74667 38.6528 2.52C38.5595 2.29333 38.4261 2.18 38.2528 2.18ZM45.4319 19.1C44.6719 19.1 44.0519 18.8 43.5719 18.2C43.1052 17.6 42.8719 16.8133 42.8719 15.84C42.8719 14.7733 43.1185 13.7667 43.6119 12.82C44.1052 11.86 44.7585 11.0933 45.5719 10.52C46.3985 9.93333 47.2719 9.64 48.1919 9.64C48.4852 9.64 48.6785 9.7 48.7719 9.82C48.8785 9.92667 48.9652 10.1267 49.0319 10.42C49.2852 10.3667 49.5652 10.34 49.8719 10.34C50.1919 10.34 50.4385 10.42 50.6119 10.58C50.7852 10.74 50.8719 10.9667 50.8719 11.26C50.8719 11.5667 50.8052 12.1 50.6719 12.86C50.5252 13.6733 50.4119 14.4533 50.3319 15.2C50.2519 15.9333 50.2119 16.76 50.2119 17.68C50.2119 18.1867 50.1052 18.5533 49.8919 18.78C49.6919 18.9933 49.3585 19.1 48.8919 19.1C48.4385 19.1 48.0985 18.9933 47.8719 18.78C47.6585 18.5533 47.5519 18.1933 47.5519 17.7L47.5719 17.38C47.1585 18.5267 46.4452 19.1 45.4319 19.1ZM46.2119 17.08C46.5852 17.08 46.9252 16.82 47.2319 16.3C47.5385 15.78 47.8119 14.8533 48.0519 13.52L48.4319 11.5C47.8852 11.5133 47.3785 11.7267 46.9119 12.14C46.4452 12.54 46.0719 13.0733 45.7919 13.74C45.5119 14.4067 45.3719 15.1133 45.3719 15.86C45.3719 16.26 45.4452 16.5667 45.5919 16.78C45.7519 16.98 45.9585 17.08 46.2119 17.08ZM74.465 14.58C74.6383 14.58 74.7717 14.6667 74.865 14.84C74.9717 15 75.025 15.2067 75.025 15.46C75.025 15.7667 74.9783 16.0067 74.885 16.18C74.7917 16.3533 74.645 16.5067 74.445 16.64C73.6583 17.16 72.405 18.0133 70.685 19.2C70.165 21.96 69.4917 24.1333 68.665 25.72C67.8383 27.3067 66.7917 28.1 65.525 28.1C64.845 28.1 64.2917 27.8867 63.865 27.46C63.4383 27.0467 63.225 26.5 63.225 25.82C63.225 25.1933 63.365 24.56 63.645 23.92C63.925 23.28 64.445 22.54 65.205 21.7C65.9783 20.86 67.065 19.9 68.465 18.82L68.525 18.44C67.4717 18.88 66.4383 19.1 65.425 19.1C63.9317 19.1 62.6183 18.8133 61.485 18.24C60.3517 17.6533 59.4717 16.8267 58.845 15.76C58.2183 14.6933 57.905 13.4533 57.905 12.04C57.905 10.0667 58.2783 8.32667 59.025 6.82C59.7717 5.3 60.7983 4.12667 62.105 3.3C63.425 2.46 64.8983 2.04 66.525 2.04C68.085 2.04 69.2517 2.40667 70.025 3.14C70.8117 3.86 71.205 4.82 71.205 6.02C71.205 6.80667 71.0583 7.44 70.765 7.92C70.485 8.38667 70.0783 8.62 69.545 8.62C69.185 8.62 68.8917 8.53333 68.665 8.36C68.4517 8.18667 68.345 7.94667 68.345 7.64C68.345 7.50667 68.3717 7.28 68.425 6.96C68.505 6.58667 68.545 6.29333 68.545 6.08C68.545 5.52 68.3717 5.08667 68.025 4.78C67.6917 4.47333 67.125 4.32 66.325 4.32C65.3517 4.32 64.445 4.6 63.605 5.16C62.7783 5.72 62.1117 6.56 61.605 7.68C61.0983 8.78667 60.845 10.12 60.845 11.68C60.845 13.28 61.2783 14.52 62.145 15.4C63.025 16.2667 64.2917 16.7 65.945 16.7C66.865 16.7 67.825 16.4933 68.825 16.08L69.105 13.64H67.065C66.6917 13.64 66.405 13.5533 66.205 13.38C66.005 13.1933 65.905 12.8933 65.905 12.48C65.905 12.1067 66.005 11.8133 66.205 11.6C66.405 11.3867 66.6717 11.28 67.005 11.28H70.745C71.0383 11.28 71.2783 11.38 71.465 11.58C71.665 11.7667 71.745 12.04 71.705 12.4C71.665 12.8267 71.5317 13.7933 71.305 15.3L71.085 16.82C72.1517 16.02 73.125 15.3267 74.005 14.74C74.1783 14.6333 74.3317 14.58 74.465 14.58ZM65.745 26.16C66.0917 26.16 66.4717 25.7667 66.885 24.98C67.2983 24.1933 67.685 22.9267 68.045 21.18C67.0317 22.0467 66.2983 22.8267 65.845 23.52C65.405 24.2267 65.185 24.8467 65.185 25.38C65.185 25.9 65.3717 26.16 65.745 26.16ZM75.6211 19.1C75.0211 19.1 74.5278 18.8267 74.1411 18.28C73.7678 17.72 73.5811 17.0267 73.5811 16.2C73.5811 15.2 73.6478 14.2867 73.7811 13.46C73.9144 12.62 74.1344 11.7333 74.4411 10.8C74.5744 10.4 74.7611 10.1133 75.0011 9.94C75.2411 9.76667 75.6211 9.68 76.1411 9.68C76.4344 9.68 76.6344 9.72667 76.7411 9.82C76.8611 9.91333 76.9211 10.0533 76.9211 10.24C76.9211 10.3467 76.8478 10.7067 76.7011 11.32C76.5678 11.8133 76.4611 12.26 76.3811 12.66C76.1144 14.06 75.9811 14.9933 75.9811 15.46C75.9811 15.74 76.0144 15.94 76.0811 16.06C76.1478 16.1667 76.2544 16.22 76.4011 16.22C76.6011 16.22 76.8478 16.02 77.1411 15.62C77.4478 15.22 77.7678 14.6133 78.1011 13.8C78.4478 12.9867 78.7811 11.9867 79.1011 10.8C79.2078 10.4 79.3678 10.1133 79.5811 9.94C79.8078 9.76667 80.1411 9.68 80.5811 9.68C80.8878 9.68 81.1011 9.72 81.2211 9.8C81.3411 9.86667 81.4011 10 81.4011 10.2C81.4011 10.5333 81.2344 11.4467 80.9011 12.94C80.5278 14.6467 80.3411 15.7 80.3411 16.1C80.3411 16.3533 80.3944 16.5533 80.5011 16.7C80.6078 16.8333 80.7478 16.9 80.9211 16.9C81.1878 16.9 81.5011 16.74 81.8611 16.42C82.2344 16.0867 82.7278 15.5533 83.3411 14.82C83.5011 14.6333 83.6811 14.54 83.8811 14.54C84.0544 14.54 84.1878 14.62 84.2811 14.78C84.3878 14.94 84.4411 15.16 84.4411 15.44C84.4411 15.9733 84.3144 16.3867 84.0611 16.68C83.4878 17.3867 82.8678 17.9667 82.2011 18.42C81.5478 18.8733 80.8011 19.1 79.9611 19.1C79.3211 19.1 78.8478 18.8533 78.5411 18.36C78.2478 17.8667 78.1011 17.1733 78.1011 16.28C77.8744 17.1867 77.5344 17.8867 77.0811 18.38C76.6278 18.86 76.1411 19.1 75.6211 19.1ZM93.4994 14.54C93.6727 14.54 93.806 14.62 93.8994 14.78C94.006 14.94 94.0594 15.16 94.0594 15.44C94.0594 15.9733 93.9327 16.3867 93.6794 16.68C93.106 17.3867 92.486 17.9667 91.8194 18.42C91.166 18.8733 90.4194 19.1 89.5794 19.1C88.8727 19.1 88.2994 18.8467 87.8594 18.34C87.0994 18.8333 86.306 19.0867 85.4794 19.1C85.306 21.6733 84.9127 23.82 84.2994 25.54C83.686 27.2733 82.786 28.14 81.5994 28.14C80.8794 28.14 80.346 27.88 79.9994 27.36C79.6527 26.84 79.4794 26.12 79.4794 25.2C79.4794 23.8933 79.7794 22.3667 80.3794 20.62C80.9794 18.8867 81.906 16.9733 83.1594 14.88C83.1594 12.9333 83.146 11.58 83.1194 10.82C83.106 10.4333 83.2594 10.1267 83.5794 9.9C83.8994 9.67333 84.2994 9.56 84.7794 9.56C85.0594 9.56 85.2594 9.62 85.3794 9.74C85.5127 9.84667 85.586 10.0667 85.5994 10.4C85.5994 10.7333 85.606 10.98 85.6194 11.14C86.046 10.6067 86.466 10.2267 86.8794 10C87.2927 9.76 87.7327 9.64 88.1994 9.64C88.946 9.64 89.5527 9.94 90.0194 10.54C90.4994 11.14 90.7394 11.9267 90.7394 12.9C90.7394 13.6067 90.626 14.2933 90.3994 14.96C90.1727 15.6267 89.8594 16.2333 89.4594 16.78C89.7394 16.86 89.9727 16.9 90.1594 16.9C90.5994 16.9 91.0194 16.74 91.4194 16.42C91.8194 16.1 92.3327 15.5667 92.9594 14.82C93.1194 14.6333 93.2994 14.54 93.4994 14.54ZM85.5794 17.18C86.0594 17.0733 86.4994 16.8133 86.8994 16.4C87.3127 15.9733 87.6394 15.4533 87.8794 14.84C88.1194 14.2133 88.2394 13.56 88.2394 12.88C88.2394 12.48 88.1594 12.18 87.9994 11.98C87.8394 11.7667 87.626 11.66 87.3594 11.66C86.8794 11.66 86.2994 12.1667 85.6194 13.18C85.606 13.7667 85.5994 14.6267 85.5994 15.76C85.5994 16.3733 85.5927 16.8467 85.5794 17.18ZM81.7594 26.18C82.1194 26.18 82.4194 25.3933 82.6594 23.82C82.8994 22.26 83.0527 20.3133 83.1194 17.98C82.546 19.3133 82.0927 20.5867 81.7594 21.8C81.426 23.0133 81.2594 24.0333 81.2594 24.86C81.2594 25.2867 81.3127 25.6133 81.4194 25.84C81.5127 26.0667 81.626 26.18 81.7594 26.18ZM101.368 14.54C101.542 14.54 101.675 14.62 101.768 14.78C101.875 14.94 101.928 15.16 101.928 15.44C101.928 15.9733 101.802 16.3867 101.548 16.68C100.975 17.3867 100.348 17.9667 99.6683 18.42C98.9883 18.8733 98.2083 19.1 97.3283 19.1C94.6083 19.1 93.2483 17.1867 93.2483 13.36C93.2483 12.7733 93.2683 12.18 93.3083 11.58H92.5283C92.1283 11.58 91.8549 11.5067 91.7083 11.36C91.5749 11.2133 91.5083 10.98 91.5083 10.66C91.5083 9.91333 91.8083 9.54 92.4083 9.54H93.5483C93.7749 8.07333 94.1216 6.73333 94.5883 5.52C95.0549 4.30667 95.6149 3.34 96.2683 2.62C96.9349 1.9 97.6483 1.54 98.4083 1.54C98.9683 1.54 99.4083 1.78667 99.7283 2.28C100.048 2.77333 100.208 3.39333 100.208 4.14C100.208 6.20667 99.3416 8.00667 97.6083 9.54H99.8483C100.062 9.54 100.215 9.58667 100.308 9.68C100.402 9.77333 100.448 9.94667 100.448 10.2C100.448 11.12 99.6949 11.58 98.1883 11.58H95.7483C95.7216 12.2467 95.7083 12.7667 95.7083 13.14C95.7083 14.5267 95.8683 15.5 96.1883 16.06C96.5216 16.62 97.0416 16.9 97.7483 16.9C98.3216 16.9 98.8283 16.7267 99.2683 16.38C99.7083 16.0333 100.228 15.5133 100.828 14.82C100.988 14.6333 101.168 14.54 101.368 14.54ZM97.8683 3.46C97.6683 3.46 97.4416 3.71333 97.1883 4.22C96.9483 4.71333 96.7149 5.40667 96.4883 6.3C96.2749 7.18 96.0949 8.16 95.9483 9.24C96.7349 8.56 97.3216 7.8 97.7083 6.96C98.1083 6.10667 98.3083 5.33333 98.3083 4.64C98.3083 3.85333 98.1616 3.46 97.8683 3.46ZM102.6 19.1C101.84 19.1 101.22 18.8 100.74 18.2C100.273 17.6 100.04 16.8133 100.04 15.84C100.04 14.7733 100.287 13.7667 100.78 12.82C101.273 11.86 101.927 11.0933 102.74 10.52C103.567 9.93333 104.44 9.64 105.36 9.64C105.653 9.64 105.847 9.7 105.94 9.82C106.047 9.92667 106.133 10.1267 106.2 10.42C106.453 10.3667 106.733 10.34 107.04 10.34C107.36 10.34 107.607 10.42 107.78 10.58C107.953 10.74 108.04 10.9667 108.04 11.26C108.04 11.5667 107.973 12.1 107.84 12.86C107.693 13.6733 107.58 14.4533 107.5 15.2C107.42 15.9333 107.38 16.76 107.38 17.68C107.38 18.1867 107.273 18.5533 107.06 18.78C106.86 18.9933 106.527 19.1 106.06 19.1C105.607 19.1 105.267 18.9933 105.04 18.78C104.827 18.5533 104.72 18.1933 104.72 17.7L104.74 17.38C104.327 18.5267 103.613 19.1 102.6 19.1ZM103.38 17.08C103.753 17.08 104.093 16.82 104.4 16.3C104.707 15.78 104.98 14.8533 105.22 13.52L105.6 11.5C105.053 11.5133 104.547 11.7267 104.08 12.14C103.613 12.54 103.24 13.0733 102.96 13.74C102.68 14.4067 102.54 15.1133 102.54 15.86C102.54 16.26 102.613 16.5667 102.76 16.78C102.92 16.98 103.127 17.08 103.38 17.08Z" fill="white"/>
</svg>
